<svg xmlns="http://www.w3.org/2000/svg" width="1440" height="900"><path d="M984,629L1262,1038L1206,581Z" fill="#137b37" stroke="#137b37" stroke-width="1.51"/><path d="M984,629L944,1003L1262,1038Z" fill="#136a31" stroke="#136a31" stroke-width="1.51"/><path d="M1262,1038L1482,849L1206,581Z" fill="#006027" stroke="#006027" stroke-width="1.51"/><path d="M1262,1038L1296,1142L1482,849Z" fill="#004e1f" stroke="#004e1f" stroke-width="1.51"/><path d="M944,1003L1296,1142L1262,1038Z" fill="#085f2a" stroke="#085f2a" stroke-width="1.51"/><path d="M1482,849L1587,561L1206,581Z" fill="#126931" stroke="#126931" stroke-width="1.51"/><path d="M944,1003L793,1260L1296,1142Z" fill="#176c34" stroke="#176c34" stroke-width="1.51"/><path d="M984,629L630,1045L944,1003Z" fill="#297a3e" stroke="#297a3e" stroke-width="1.51"/><path d="M630,1045L793,1260L944,1003Z" fill="#337d42" stroke="#337d42" stroke-width="1.51"/><path d="M1878,1183L1747,710L1482,849Z" fill="#00441b" stroke="#00441b" stroke-width="1.51"/><path d="M1482,849L1747,710L1587,561Z" fill="#0c622c" stroke="#0c622c" stroke-width="1.51"/><path d="M1206,581L824,233L984,629Z" fill="#4daa5f" stroke="#4daa5f" stroke-width="1.51"/><path d="M1587,561L1508,304L1206,581Z" fill="#357e43" stroke="#357e43" stroke-width="1.51"/><path d="M1729,340L1508,304L1587,561Z" fill="#46854e" stroke="#46854e" stroke-width="1.51"/><path d="M630,1045L632,1218L793,1260Z" fill="#418349" stroke="#418349" stroke-width="1.51"/><path d="M1508,304L1219,172L1206,581Z" fill="#569a5c" stroke="#569a5c" stroke-width="1.51"/><path d="M984,629L515,633L630,1045Z" fill="#479b53" stroke="#479b53" stroke-width="1.51"/><path d="M547,382L515,633L984,629Z" fill="#64bb6f" stroke="#64bb6f" stroke-width="1.51"/><path d="M630,1045L195,1241L632,1218Z" fill="#598e5c" stroke="#598e5c" stroke-width="1.51"/><path d="M1219,172L824,233L1206,581Z" fill="#68b270" stroke="#68b270" stroke-width="1.51"/><path d="M824,233L547,382L984,629Z" fill="#73c377" stroke="#73c377" stroke-width="1.51"/><path d="M793,1260L958,1539L1296,1142Z" fill="#176c33" stroke="#176c33" stroke-width="1.51"/><path d="M1296,1142L1878,1183L1482,849Z" fill="#00441b" stroke="#00441b" stroke-width="1.51"/><path d="M652,1604L958,1539L793,1260Z" fill="#307c41" stroke="#307c41" stroke-width="1.51"/><path d="M1747,710L1729,340L1587,561Z" fill="#28783d" stroke="#28783d" stroke-width="1.51"/><path d="M1508,304L1517,-101L1219,172Z" fill="#749c76" stroke="#749c76" stroke-width="1.51"/><path d="M1534,1644L1664,1413L1296,1142Z" fill="#00441b" stroke="#00441b" stroke-width="1.51"/><path d="M1664,1413L1878,1183L1296,1142Z" fill="#00441b" stroke="#00441b" stroke-width="1.51"/><path d="M1747,710L2221,399L1729,340Z" fill="#357e43" stroke="#357e43" stroke-width="1.51"/><path d="M824,233L597,-7L547,382Z" fill="#a9dba4" stroke="#a9dba4" stroke-width="1.51"/><path d="M1219,172L858,30L824,233Z" fill="#8ec994" stroke="#8ec994" stroke-width="1.51"/><path d="M1321,-175L858,30L1219,172Z" fill="#90be95" stroke="#90be95" stroke-width="1.51"/><path d="M1878,1183L1992,891L1747,710Z" fill="#00441b" stroke="#00441b" stroke-width="1.51"/><path d="M958,1539L1235,1703L1296,1142Z" fill="#08602a" stroke="#08602a" stroke-width="1.51"/><path d="M547,382L257,642L515,633Z" fill="#81c887" stroke="#81c887" stroke-width="1.51"/><path d="M515,633L257,642L630,1045Z" fill="#65a76a" stroke="#65a76a" stroke-width="1.51"/><path d="M287,176L257,642L547,382Z" fill="#a7dba2" stroke="#a7dba2" stroke-width="1.51"/><path d="M1235,1703L1534,1644L1296,1142Z" fill="#004d1f" stroke="#004d1f" stroke-width="1.51"/><path d="M1664,1413L1831,1630L1878,1183Z" fill="#00441b" stroke="#00441b" stroke-width="1.51"/><path d="M958,1539L652,1604L1235,1703Z" fill="#1c7137" stroke="#1c7137" stroke-width="1.51"/><path d="M632,1218L652,1604L793,1260Z" fill="#408349" stroke="#408349" stroke-width="1.51"/><path d="M162,1465L652,1604L632,1218Z" fill="#598e5d" stroke="#598e5d" stroke-width="1.51"/><path d="M858,30L597,-7L824,233Z" fill="#abdbaa" stroke="#abdbaa" stroke-width="1.51"/><path d="M1874,69L1517,-101L1508,304Z" fill="#769979" stroke="#769979" stroke-width="1.51"/><path d="M858,30L630,-233L597,-7Z" fill="#bae2b7" stroke="#bae2b7" stroke-width="1.51"/><path d="M1517,-101L1321,-175L1219,172Z" fill="#82a886" stroke="#82a886" stroke-width="1.51"/><path d="M88,974L195,1241L630,1045Z" fill="#6a956d" stroke="#6a956d" stroke-width="1.51"/><path d="M2221,399L1874,69L1729,340Z" fill="#5e9061" stroke="#5e9061" stroke-width="1.51"/><path d="M1729,340L1874,69L1508,304Z" fill="#649266" stroke="#649266" stroke-width="1.51"/><path d="M1235,1703L1831,1630L1534,1644Z" fill="#00441b" stroke="#00441b" stroke-width="1.51"/><path d="M1534,1644L1831,1630L1664,1413Z" fill="#00441b" stroke="#00441b" stroke-width="1.51"/><path d="M1878,1183L2218,1035L1992,891Z" fill="#00441b" stroke="#00441b" stroke-width="1.51"/><path d="M257,642L88,974L630,1045Z" fill="#6a976c" stroke="#6a976c" stroke-width="1.51"/><path d="M257,642L-215,583L88,974Z" fill="#8cba90" stroke="#8cba90" stroke-width="1.51"/><path d="M597,-7L287,176L547,382Z" fill="#c0e6ba" stroke="#c0e6ba" stroke-width="1.51"/><path d="M2284,563L2221,399L1747,710Z" fill="#22763b" stroke="#22763b" stroke-width="1.51"/><path d="M2336,1302L2218,1035L1878,1183Z" fill="#00441b" stroke="#00441b" stroke-width="1.51"/><path d="M1874,69L1558,-244L1517,-101Z" fill="#7d9c80" stroke="#7d9c80" stroke-width="1.51"/><path d="M1517,-101L1558,-244L1321,-175Z" fill="#7d9c80" stroke="#7d9c80" stroke-width="1.51"/><path d="M809,-437L630,-233L858,30Z" fill="#b2deb1" stroke="#b2deb1" stroke-width="1.51"/><path d="M2284,563L1747,710L1992,891Z" fill="#0a602b" stroke="#0a602b" stroke-width="1.51"/><path d="M1874,69L1822,-460L1558,-244Z" fill="#7d9c80" stroke="#7d9c80" stroke-width="1.51"/><path d="M2218,1035L2284,563L1992,891Z" fill="#005020" stroke="#005020" stroke-width="1.51"/><path d="M597,-7L169,-72L287,176Z" fill="#def2d8" stroke="#def2d8" stroke-width="1.51"/><path d="M809,-437L858,30L1321,-175Z" fill="#9acba0" stroke="#9acba0" stroke-width="1.51"/><path d="M-43,1325L162,1465L195,1241Z" fill="#789a7b" stroke="#789a7b" stroke-width="1.51"/><path d="M195,1241L162,1465L632,1218Z" fill="#68946a" stroke="#68946a" stroke-width="1.51"/><path d="M287,176L33,421L257,642Z" fill="#b4e0af" stroke="#b4e0af" stroke-width="1.51"/><path d="M-100,-51L33,421L287,176Z" fill="#e2f4dc" stroke="#e2f4dc" stroke-width="1.51"/><path d="M1558,-244L1355,-405L1321,-175Z" fill="#7fa082" stroke="#7fa082" stroke-width="1.51"/><path d="M88,974L-43,1325L195,1241Z" fill="#799b7c" stroke="#799b7c" stroke-width="1.51"/><path d="M-243,989L-43,1325L88,974Z" fill="#7d9c80" stroke="#7d9c80" stroke-width="1.51"/><path d="M2218,1035L2336,1302L2284,563Z" fill="#00441b" stroke="#00441b" stroke-width="1.51"/><path d="M2298,1468L2336,1302L1878,1183Z" fill="#00441b" stroke="#00441b" stroke-width="1.51"/><path d="M630,-233L169,-72L597,-7Z" fill="#d4eecf" stroke="#d4eecf" stroke-width="1.51"/><path d="M1355,-405L809,-437L1321,-175Z" fill="#8ebc94" stroke="#8ebc94" stroke-width="1.51"/><path d="M248,-392L169,-72L630,-233Z" fill="#e0f3db" stroke="#e0f3db" stroke-width="1.51"/><path d="M1831,1630L2298,1468L1878,1183Z" fill="#00441b" stroke="#00441b" stroke-width="1.51"/><path d="M-532,146L-215,583L33,421Z" fill="#c4e6c0" stroke="#c4e6c0" stroke-width="1.51"/><path d="M33,421L-215,583L257,642Z" fill="#a3d5a7" stroke="#a3d5a7" stroke-width="1.51"/><path d="M2284,563L2195,-75L2221,399Z" fill="#5a8e5e" stroke="#5a8e5e" stroke-width="1.51"/><path d="M2221,399L2195,-75L1874,69Z" fill="#729874" stroke="#729874" stroke-width="1.51"/><path d="M1558,-244L1822,-460L1355,-405Z" fill="#7d9c80" stroke="#7d9c80" stroke-width="1.51"/><path d="M-215,583L-243,989L88,974Z" fill="#82a686" stroke="#82a686" stroke-width="1.51"/><path d="M1355,-405L1822,-460L809,-437Z" fill="#84aa87" stroke="#84aa87" stroke-width="1.51"/><path d="M2073,-295L1822,-460L1874,69Z" fill="#7d9c80" stroke="#7d9c80" stroke-width="1.51"/><path d="M2195,-75L2073,-295L1874,69Z" fill="#7d9c80" stroke="#7d9c80" stroke-width="1.51"/><path d="M-360,1231L-137,1514L-43,1325Z" fill="#7d9c80" stroke="#7d9c80" stroke-width="1.51"/><path d="M-43,1325L-137,1514L162,1465Z" fill="#7d9c80" stroke="#7d9c80" stroke-width="1.51"/><path d="M162,1465L-137,1514L652,1604Z" fill="#709773" stroke="#709773" stroke-width="1.51"/><path d="M652,1604L-515,1660L1235,1703Z" fill="#5c8e5f" stroke="#5c8e5f" stroke-width="1.51"/><path d="M809,-437L248,-392L630,-233Z" fill="#cae9c5" stroke="#cae9c5" stroke-width="1.51"/><path d="M169,-72L-100,-51L287,176Z" fill="#f0f9ec" stroke="#f0f9ec" stroke-width="1.51"/><path d="M-188,-333L-100,-51L169,-72Z" fill="#f7fcf5" stroke="#f7fcf5" stroke-width="1.51"/><path d="M-243,989L-360,1231L-43,1325Z" fill="#7d9c80" stroke="#7d9c80" stroke-width="1.51"/><path d="M-215,583L-393,962L-243,989Z" fill="#82a886" stroke="#82a886" stroke-width="1.51"/><path d="M-479,647L-393,962L-215,583Z" fill="#8ebb93" stroke="#8ebb93" stroke-width="1.51"/><path d="M-393,962L-360,1231L-243,989Z" fill="#7d9c80" stroke="#7d9c80" stroke-width="1.51"/><path d="M-532,146L-479,647L-215,583Z" fill="#b5dfb3" stroke="#b5dfb3" stroke-width="1.51"/><path d="M-393,962L-515,1660L-360,1231Z" fill="#7d9c80" stroke="#7d9c80" stroke-width="1.51"/><path d="M-100,-51L-532,146L33,421Z" fill="#e6f6e2" stroke="#e6f6e2" stroke-width="1.51"/><path d="M248,-392L-188,-333L169,-72Z" fill="#f3fbf0" stroke="#f3fbf0" stroke-width="1.51"/><path d="M-539,47L-532,146L-100,-51Z" fill="#f3fbf0" stroke="#f3fbf0" stroke-width="1.51"/><path d="M-188,-333L-319,-288L-100,-51Z" fill="#f7fcf5" stroke="#f7fcf5" stroke-width="1.51"/><path d="M-319,-288L-539,47L-100,-51Z" fill="#f7fcf5" stroke="#f7fcf5" stroke-width="1.51"/><path d="M-539,47L-515,1660L-532,146Z" fill="#9bcca0" stroke="#9bcca0" stroke-width="1.51"/><path d="M-532,146L-515,1660L-479,647Z" fill="#85ad88" stroke="#85ad88" stroke-width="1.51"/><path d="M-479,647L-515,1660L-393,962Z" fill="#7d9c80" stroke="#7d9c80" stroke-width="1.51"/><path d="M-360,1231L-515,1660L-137,1514Z" fill="#7d9c80" stroke="#7d9c80" stroke-width="1.51"/><path d="M-137,1514L-515,1660L652,1604Z" fill="#7d9c80" stroke="#7d9c80" stroke-width="1.51"/></svg>