<svg xmlns="http://www.w3.org/2000/svg" width="1440" height="900"><path d="M1008,691L822,961L999,1055Z" fill="#1a4f88" stroke="#1a4f88" stroke-width="1.51"/><path d="M1008,691L662,526L822,961Z" fill="#3174b1" stroke="#3174b1" stroke-width="1.51"/><path d="M999,1055L1506,755L1008,691Z" fill="#20398c" stroke="#20398c" stroke-width="1.51"/><path d="M1008,691L1130,260L662,526Z" fill="#2d97c0" stroke="#2d97c0" stroke-width="1.51"/><path d="M999,1055L1563,899L1506,755Z" fill="#0f2265" stroke="#0f2265" stroke-width="1.51"/><path d="M1506,755L1130,260L1008,691Z" fill="#2a66ac" stroke="#2a66ac" stroke-width="1.51"/><path d="M1130,260L647,329L662,526Z" fill="#55b4c0" stroke="#55b4c0" stroke-width="1.51"/><path d="M822,961L743,1468L999,1055Z" fill="#20588b" stroke="#20588b" stroke-width="1.51"/><path d="M999,1055L1354,1474L1563,899Z" fill="#13256e" stroke="#13256e" stroke-width="1.51"/><path d="M307,951L743,1468L822,961Z" fill="#3f6a8b" stroke="#3f6a8b" stroke-width="1.51"/><path d="M743,1468L1111,1504L999,1055Z" fill="#1a4d87" stroke="#1a4d87" stroke-width="1.51"/><path d="M662,526L307,951L822,961Z" fill="#5178a3" stroke="#5178a3" stroke-width="1.51"/><path d="M268,740L307,951L662,526Z" fill="#7990ac" stroke="#7990ac" stroke-width="1.51"/><path d="M1111,1504L1354,1474L999,1055Z" fill="#17347b" stroke="#17347b" stroke-width="1.51"/><path d="M329,146L268,740L662,526Z" fill="#81c7bd" stroke="#81c7bd" stroke-width="1.51"/><path d="M1563,899L1769,943L1506,755Z" fill="#0d2061" stroke="#0d2061" stroke-width="1.51"/><path d="M1506,755L1457,163L1130,260Z" fill="#467099" stroke="#467099" stroke-width="1.51"/><path d="M1791,1359L1769,943L1563,899Z" fill="#081d58" stroke="#081d58" stroke-width="1.51"/><path d="M1130,260L1127,-19L647,329Z" fill="#8db3b7" stroke="#8db3b7" stroke-width="1.51"/><path d="M1863,629L1457,163L1506,755Z" fill="#245b8c" stroke="#245b8c" stroke-width="1.51"/><path d="M1357,-38L1127,-19L1130,260Z" fill="#9a98b0" stroke="#9a98b0" stroke-width="1.51"/><path d="M307,951L246,1396L743,1468Z" fill="#637688" stroke="#637688" stroke-width="1.51"/><path d="M31,1355L246,1396L307,951Z" fill="#818186" stroke="#818186" stroke-width="1.51"/><path d="M1769,943L1863,629L1506,755Z" fill="#172b76" stroke="#172b76" stroke-width="1.51"/><path d="M1354,1474L1791,1359L1563,899Z" fill="#081d58" stroke="#081d58" stroke-width="1.51"/><path d="M1111,1504L1404,1692L1354,1474Z" fill="#142671" stroke="#142671" stroke-width="1.51"/><path d="M1126,1878L1404,1692L1111,1504Z" fill="#172e78" stroke="#172e78" stroke-width="1.51"/><path d="M1126,1878L1111,1504L743,1468Z" fill="#194885" stroke="#194885" stroke-width="1.51"/><path d="M2281,1084L2193,539L1863,629Z" fill="#172f79" stroke="#172f79" stroke-width="1.51"/><path d="M1404,1692L1791,1359L1354,1474Z" fill="#081d58" stroke="#081d58" stroke-width="1.51"/><path d="M647,329L329,146L662,526Z" fill="#80cdbb" stroke="#80cdbb" stroke-width="1.51"/><path d="M347,-24L329,146L647,329Z" fill="#c5e7b5" stroke="#c5e7b5" stroke-width="1.51"/><path d="M1884,7L1357,-38L1457,163Z" fill="#878391" stroke="#878391" stroke-width="1.51"/><path d="M1457,163L1357,-38L1130,260Z" fill="#8e8b9c" stroke="#8e8b9c" stroke-width="1.51"/><path d="M625,1852L1126,1878L743,1468Z" fill="#235b8c" stroke="#235b8c" stroke-width="1.51"/><path d="M-67,599L-33,1027L268,740Z" fill="#9b92b2" stroke="#9b92b2" stroke-width="1.51"/><path d="M268,740L-33,1027L307,951Z" fill="#838186" stroke="#838186" stroke-width="1.51"/><path d="M272,1693L625,1852L743,1468Z" fill="#4b6f89" stroke="#4b6f89" stroke-width="1.51"/><path d="M246,1396L272,1693L743,1468Z" fill="#657788" stroke="#657788" stroke-width="1.51"/><path d="M-33,1027L31,1355L307,951Z" fill="#86838e" stroke="#86838e" stroke-width="1.51"/><path d="M41,273L-67,599L268,740Z" fill="#a3c9c5" stroke="#a3c9c5" stroke-width="1.51"/><path d="M31,1355L272,1693L246,1396Z" fill="#828186" stroke="#828186" stroke-width="1.51"/><path d="M1116,-397L837,-214L1127,-19Z" fill="#a0b3c5" stroke="#a0b3c5" stroke-width="1.51"/><path d="M1127,-19L837,-214L647,329Z" fill="#a3c9c9" stroke="#a3c9c9" stroke-width="1.51"/><path d="M837,-214L347,-24L647,329Z" fill="#b8e0c7" stroke="#b8e0c7" stroke-width="1.51"/><path d="M329,146L41,273L268,740Z" fill="#addcb9" stroke="#addcb9" stroke-width="1.51"/><path d="M347,-24L41,273L329,146Z" fill="#e4f4b2" stroke="#e4f4b2" stroke-width="1.51"/><path d="M1863,629L1886,182L1457,163Z" fill="#517089" stroke="#517089" stroke-width="1.51"/><path d="M1886,182L1884,7L1457,163Z" fill="#828186" stroke="#828186" stroke-width="1.51"/><path d="M1357,-38L1116,-397L1127,-19Z" fill="#9e9bbc" stroke="#9e9bbc" stroke-width="1.51"/><path d="M1886,182L2298,340L1884,7Z" fill="#787e87" stroke="#787e87" stroke-width="1.51"/><path d="M1863,629L2193,539L1886,182Z" fill="#2d658d" stroke="#2d658d" stroke-width="1.51"/><path d="M2281,1084L1863,629L1769,943Z" fill="#0a1e5b" stroke="#0a1e5b" stroke-width="1.51"/><path d="M1539,-489L1116,-397L1357,-38Z" fill="#958dab" stroke="#958dab" stroke-width="1.51"/><path d="M837,-214L806,-392L347,-24Z" fill="#b4decd" stroke="#b4decd" stroke-width="1.51"/><path d="M1116,-397L806,-392L837,-214Z" fill="#a3c3cc" stroke="#a3c3cc" stroke-width="1.51"/><path d="M1126,1878L1869,1816L1404,1692Z" fill="#081d58" stroke="#081d58" stroke-width="1.51"/><path d="M1404,1692L1869,1816L1791,1359Z" fill="#081d58" stroke="#081d58" stroke-width="1.51"/><path d="M1791,1359L2281,1084L1769,943Z" fill="#081d58" stroke="#081d58" stroke-width="1.51"/><path d="M31,1355L-45,1872L272,1693Z" fill="#86838f" stroke="#86838f" stroke-width="1.51"/><path d="M-33,1027L-484,1423L31,1355Z" fill="#898498" stroke="#898498" stroke-width="1.51"/><path d="M-67,599L-327,942L-33,1027Z" fill="#918aa5" stroke="#918aa5" stroke-width="1.51"/><path d="M-427,621L-327,942L-67,599Z" fill="#9ea1be" stroke="#9ea1be" stroke-width="1.51"/><path d="M2265,1457L2281,1084L1791,1359Z" fill="#081d58" stroke="#081d58" stroke-width="1.51"/><path d="M41,273L-301,378L-67,599Z" fill="#b3decd" stroke="#b3decd" stroke-width="1.51"/><path d="M-41,-188L-301,378L41,273Z" fill="#eff9c5" stroke="#eff9c5" stroke-width="1.51"/><path d="M-41,-188L41,273L347,-24Z" fill="#f8fdc9" stroke="#f8fdc9" stroke-width="1.51"/><path d="M1869,1816L2265,1457L1791,1359Z" fill="#081d58" stroke="#081d58" stroke-width="1.51"/><path d="M2281,1084L2298,340L2193,539Z" fill="#174181" stroke="#174181" stroke-width="1.51"/><path d="M2193,539L2298,340L1886,182Z" fill="#486e89" stroke="#486e89" stroke-width="1.51"/><path d="M-301,378L-427,621L-67,599Z" fill="#a6ccce" stroke="#a6ccce" stroke-width="1.51"/><path d="M-322,1839L-45,1872L31,1355Z" fill="#898498" stroke="#898498" stroke-width="1.51"/><path d="M272,1693L-45,1872L625,1852Z" fill="#787e87" stroke="#787e87" stroke-width="1.51"/><path d="M625,1852L-45,1872L1126,1878Z" fill="#486d8a" stroke="#486d8a" stroke-width="1.51"/><path d="M-484,1423L-33,1027L-327,942Z" fill="#898498" stroke="#898498" stroke-width="1.51"/><path d="M1116,-397L1539,-489L806,-392Z" fill="#9ea1be" stroke="#9ea1be" stroke-width="1.51"/><path d="M1884,7L1539,-489L1357,-38Z" fill="#898498" stroke="#898498" stroke-width="1.51"/><path d="M1947,-371L1539,-489L1884,7Z" fill="#898498" stroke="#898498" stroke-width="1.51"/><path d="M230,-397L-41,-188L347,-24Z" fill="#f6fcc5" stroke="#f6fcc5" stroke-width="1.51"/><path d="M-301,378L-507,-191L-427,621Z" fill="#d6efc8" stroke="#d6efc8" stroke-width="1.51"/><path d="M806,-392L230,-397L347,-24Z" fill="#d1ecc8" stroke="#d1ecc8" stroke-width="1.51"/><path d="M22,-462L230,-397L806,-392Z" fill="#e4f5c6" stroke="#e4f5c6" stroke-width="1.51"/><path d="M-427,621L-484,1423L-327,942Z" fill="#898498" stroke="#898498" stroke-width="1.51"/><path d="M2251,-200L1947,-371L1884,7Z" fill="#898498" stroke="#898498" stroke-width="1.51"/><path d="M2281,1084L2269,1844L2298,340Z" fill="#081d58" stroke="#081d58" stroke-width="1.51"/><path d="M2265,1457L2269,1844L2281,1084Z" fill="#081d58" stroke="#081d58" stroke-width="1.51"/><path d="M1869,1816L2269,1844L2265,1457Z" fill="#081d58" stroke="#081d58" stroke-width="1.51"/><path d="M1126,1878L2269,1844L1869,1816Z" fill="#081d58" stroke="#081d58" stroke-width="1.51"/><path d="M-484,1423L-322,1839L31,1355Z" fill="#898498" stroke="#898498" stroke-width="1.51"/><path d="M230,-397L22,-462L-41,-188Z" fill="#fcfed1" stroke="#fcfed1" stroke-width="1.51"/><path d="M-41,-188L-507,-191L-301,378Z" fill="#ffffd9" stroke="#ffffd9" stroke-width="1.51"/><path d="M1539,-489L22,-462L806,-392Z" fill="#a9d3cf" stroke="#a9d3cf" stroke-width="1.51"/><path d="M2298,340L2251,-200L1884,7Z" fill="#868390" stroke="#868390" stroke-width="1.51"/><path d="M2251,-200L2107,-423L1947,-371Z" fill="#898498" stroke="#898498" stroke-width="1.51"/><path d="M1947,-371L2107,-423L1539,-489Z" fill="#898498" stroke="#898498" stroke-width="1.51"/><path d="M-427,621L-507,-191L-484,1423Z" fill="#a1b9c8" stroke="#a1b9c8" stroke-width="1.51"/><path d="M-462,-570L-507,-191L-41,-188Z" fill="#ffffd9" stroke="#ffffd9" stroke-width="1.51"/><path d="M1539,-489L-462,-570L22,-462Z" fill="#e2f4c6" stroke="#e2f4c6" stroke-width="1.51"/><path d="M22,-462L-462,-570L-41,-188Z" fill="#ffffd9" stroke="#ffffd9" stroke-width="1.51"/></svg>