<svg xmlns="http://www.w3.org/2000/svg" width="1440" height="900"><path d="M1008,691L822,961L999,1055Z" fill="#255b95" stroke="#255b95" stroke-width="1.51"/><path d="M1008,691L662,526L822,961Z" fill="#3a7fbb" stroke="#3a7fbb" stroke-width="1.51"/><path d="M999,1055L1506,755L1008,691Z" fill="#115297" stroke="#115297" stroke-width="1.51"/><path d="M1008,691L1130,260L662,526Z" fill="#4e97c9" stroke="#4e97c9" stroke-width="1.51"/><path d="M999,1055L1563,899L1506,755Z" fill="#093776" stroke="#093776" stroke-width="1.51"/><path d="M1506,755L1130,260L1008,691Z" fill="#2d74b3" stroke="#2d74b3" stroke-width="1.51"/><path d="M1130,260L647,329L662,526Z" fill="#75b0d6" stroke="#75b0d6" stroke-width="1.51"/><path d="M822,961L743,1468L999,1055Z" fill="#2f6299" stroke="#2f6299" stroke-width="1.51"/><path d="M999,1055L1354,1474L1563,899Z" fill="#093c7d" stroke="#093c7d" stroke-width="1.51"/><path d="M307,951L743,1468L822,961Z" fill="#4e72a2" stroke="#4e72a2" stroke-width="1.51"/><path d="M743,1468L1111,1504L999,1055Z" fill="#245a95" stroke="#245a95" stroke-width="1.51"/><path d="M662,526L307,951L822,961Z" fill="#5882b7" stroke="#5882b7" stroke-width="1.51"/><path d="M268,740L307,951L662,526Z" fill="#7598c9" stroke="#7598c9" stroke-width="1.51"/><path d="M1111,1504L1354,1474L999,1055Z" fill="#11498a" stroke="#11498a" stroke-width="1.51"/><path d="M329,146L268,740L662,526Z" fill="#91bfdf" stroke="#91bfdf" stroke-width="1.51"/><path d="M1563,899L1769,943L1506,755Z" fill="#093572" stroke="#093572" stroke-width="1.51"/><path d="M1506,755L1457,163L1130,260Z" fill="#507aad" stroke="#507aad" stroke-width="1.51"/><path d="M1791,1359L1769,943L1563,899Z" fill="#08306b" stroke="#08306b" stroke-width="1.51"/><path d="M1130,260L1127,-19L647,329Z" fill="#8ab1d9" stroke="#8ab1d9" stroke-width="1.51"/><path d="M1863,629L1457,163L1506,755Z" fill="#33649b" stroke="#33649b" stroke-width="1.51"/><path d="M1357,-38L1127,-19L1130,260Z" fill="#8ca2cf" stroke="#8ca2cf" stroke-width="1.51"/><path d="M307,951L246,1396L743,1468Z" fill="#667da8" stroke="#667da8" stroke-width="1.51"/><path d="M31,1355L246,1396L307,951Z" fill="#7987af" stroke="#7987af" stroke-width="1.51"/><path d="M1769,943L1863,629L1506,755Z" fill="#0a4285" stroke="#0a4285" stroke-width="1.51"/><path d="M1354,1474L1791,1359L1563,899Z" fill="#08306b" stroke="#08306b" stroke-width="1.51"/><path d="M1111,1504L1404,1692L1354,1474Z" fill="#083d7f" stroke="#083d7f" stroke-width="1.51"/><path d="M1126,1878L1404,1692L1111,1504Z" fill="#0d4486" stroke="#0d4486" stroke-width="1.51"/><path d="M1126,1878L1111,1504L743,1468Z" fill="#205793" stroke="#205793" stroke-width="1.51"/><path d="M2281,1084L2193,539L1863,629Z" fill="#0e4587" stroke="#0e4587" stroke-width="1.51"/><path d="M1404,1692L1791,1359L1354,1474Z" fill="#08306b" stroke="#08306b" stroke-width="1.51"/><path d="M647,329L329,146L662,526Z" fill="#9ecae1" stroke="#9ecae1" stroke-width="1.51"/><path d="M347,-24L329,146L647,329Z" fill="#c5dcee" stroke="#c5dcee" stroke-width="1.51"/><path d="M1884,7L1357,-38L1457,163Z" fill="#828bb2" stroke="#828bb2" stroke-width="1.51"/><path d="M1457,163L1357,-38L1130,260Z" fill="#8093c1" stroke="#8093c1" stroke-width="1.51"/><path d="M625,1852L1126,1878L743,1468Z" fill="#32649a" stroke="#32649a" stroke-width="1.51"/><path d="M-67,599L-33,1027L268,740Z" fill="#8d9fcc" stroke="#8d9fcc" stroke-width="1.51"/><path d="M268,740L-33,1027L307,951Z" fill="#7a87af" stroke="#7a87af" stroke-width="1.51"/><path d="M272,1693L625,1852L743,1468Z" fill="#5978a5" stroke="#5978a5" stroke-width="1.51"/><path d="M246,1396L272,1693L743,1468Z" fill="#687da9" stroke="#687da9" stroke-width="1.51"/><path d="M-33,1027L31,1355L307,951Z" fill="#808ab1" stroke="#808ab1" stroke-width="1.51"/><path d="M41,273L-67,599L268,740Z" fill="#a2c5e3" stroke="#a2c5e3" stroke-width="1.51"/><path d="M31,1355L272,1693L246,1396Z" fill="#7a87af" stroke="#7a87af" stroke-width="1.51"/><path d="M1116,-397L837,-214L1127,-19Z" fill="#9db9dd" stroke="#9db9dd" stroke-width="1.51"/><path d="M1127,-19L837,-214L647,329Z" fill="#a4c5e3" stroke="#a4c5e3" stroke-width="1.51"/><path d="M837,-214L347,-24L647,329Z" fill="#bfdbed" stroke="#bfdbed" stroke-width="1.51"/><path d="M329,146L41,273L268,740Z" fill="#b3d3e9" stroke="#b3d3e9" stroke-width="1.51"/><path d="M347,-24L41,273L329,146Z" fill="#d8e7f5" stroke="#d8e7f5" stroke-width="1.51"/><path d="M1863,629L1886,182L1457,163Z" fill="#5d79a6" stroke="#5d79a6" stroke-width="1.51"/><path d="M1886,182L1884,7L1457,163Z" fill="#7a87af" stroke="#7a87af" stroke-width="1.51"/><path d="M1357,-38L1116,-397L1127,-19Z" fill="#94a7d1" stroke="#94a7d1" stroke-width="1.51"/><path d="M1886,182L2298,340L1884,7Z" fill="#7383ad" stroke="#7383ad" stroke-width="1.51"/><path d="M1863,629L2193,539L1886,182Z" fill="#3f6c9f" stroke="#3f6c9f" stroke-width="1.51"/><path d="M2281,1084L1863,629L1769,943Z" fill="#08326e" stroke="#08326e" stroke-width="1.51"/><path d="M1539,-489L1116,-397L1357,-38Z" fill="#8d99c2" stroke="#8d99c2" stroke-width="1.51"/><path d="M837,-214L806,-392L347,-24Z" fill="#bcd9ec" stroke="#bcd9ec" stroke-width="1.51"/><path d="M1116,-397L806,-392L837,-214Z" fill="#a3c3e2" stroke="#a3c3e2" stroke-width="1.51"/><path d="M1126,1878L1869,1816L1404,1692Z" fill="#08306b" stroke="#08306b" stroke-width="1.51"/><path d="M1404,1692L1869,1816L1791,1359Z" fill="#08306b" stroke="#08306b" stroke-width="1.51"/><path d="M1791,1359L2281,1084L1769,943Z" fill="#08306b" stroke="#08306b" stroke-width="1.51"/><path d="M31,1355L-45,1872L272,1693Z" fill="#818bb1" stroke="#818bb1" stroke-width="1.51"/><path d="M-33,1027L-484,1423L31,1355Z" fill="#878eb3" stroke="#878eb3" stroke-width="1.51"/><path d="M-67,599L-327,942L-33,1027Z" fill="#8b96bd" stroke="#8b96bd" stroke-width="1.51"/><path d="M-427,621L-327,942L-67,599Z" fill="#96acd5" stroke="#96acd5" stroke-width="1.51"/><path d="M2265,1457L2281,1084L1791,1359Z" fill="#08306b" stroke="#08306b" stroke-width="1.51"/><path d="M41,273L-301,378L-67,599Z" fill="#bbd8ec" stroke="#bbd8ec" stroke-width="1.51"/><path d="M-41,-188L-301,378L41,273Z" fill="#e6f0fa" stroke="#e6f0fa" stroke-width="1.51"/><path d="M-41,-188L41,273L347,-24Z" fill="#edf4fc" stroke="#edf4fc" stroke-width="1.51"/><path d="M1869,1816L2265,1457L1791,1359Z" fill="#08306b" stroke="#08306b" stroke-width="1.51"/><path d="M2281,1084L2298,340L2193,539Z" fill="#1a5291" stroke="#1a5291" stroke-width="1.51"/><path d="M2193,539L2298,340L1886,182Z" fill="#5777a4" stroke="#5777a4" stroke-width="1.51"/><path d="M-301,378L-427,621L-67,599Z" fill="#a9c9e5" stroke="#a9c9e5" stroke-width="1.51"/><path d="M-322,1839L-45,1872L31,1355Z" fill="#878eb3" stroke="#878eb3" stroke-width="1.51"/><path d="M272,1693L-45,1872L625,1852Z" fill="#7383ad" stroke="#7383ad" stroke-width="1.51"/><path d="M625,1852L-45,1872L1126,1878Z" fill="#5676a4" stroke="#5676a4" stroke-width="1.51"/><path d="M-484,1423L-33,1027L-327,942Z" fill="#878eb3" stroke="#878eb3" stroke-width="1.51"/><path d="M1116,-397L1539,-489L806,-392Z" fill="#96acd5" stroke="#96acd5" stroke-width="1.51"/><path d="M1884,7L1539,-489L1357,-38Z" fill="#878eb3" stroke="#878eb3" stroke-width="1.51"/><path d="M1947,-371L1539,-489L1884,7Z" fill="#878eb3" stroke="#878eb3" stroke-width="1.51"/><path d="M230,-397L-41,-188L347,-24Z" fill="#ebf3fb" stroke="#ebf3fb" stroke-width="1.51"/><path d="M-301,378L-507,-191L-427,621Z" fill="#d7e7f4" stroke="#d7e7f4" stroke-width="1.51"/><path d="M806,-392L230,-397L347,-24Z" fill="#d4e6f3" stroke="#d4e6f3" stroke-width="1.51"/><path d="M22,-462L230,-397L806,-392Z" fill="#dfebf7" stroke="#dfebf7" stroke-width="1.51"/><path d="M-427,621L-484,1423L-327,942Z" fill="#878eb3" stroke="#878eb3" stroke-width="1.51"/><path d="M2251,-200L1947,-371L1884,7Z" fill="#878eb3" stroke="#878eb3" stroke-width="1.51"/><path d="M2281,1084L2269,1844L2298,340Z" fill="#08306b" stroke="#08306b" stroke-width="1.51"/><path d="M2265,1457L2269,1844L2281,1084Z" fill="#08306b" stroke="#08306b" stroke-width="1.51"/><path d="M1869,1816L2269,1844L2265,1457Z" fill="#08306b" stroke="#08306b" stroke-width="1.51"/><path d="M1126,1878L2269,1844L1869,1816Z" fill="#08306b" stroke="#08306b" stroke-width="1.51"/><path d="M-484,1423L-322,1839L31,1355Z" fill="#878eb3" stroke="#878eb3" stroke-width="1.51"/><path d="M230,-397L22,-462L-41,-188Z" fill="#f2f8fe" stroke="#f2f8fe" stroke-width="1.51"/><path d="M-41,-188L-507,-191L-301,378Z" fill="#f7fbff" stroke="#f7fbff" stroke-width="1.51"/><path d="M1539,-489L22,-462L806,-392Z" fill="#aecee8" stroke="#aecee8" stroke-width="1.51"/><path d="M2298,340L2251,-200L1884,7Z" fill="#818bb2" stroke="#818bb2" stroke-width="1.51"/><path d="M2251,-200L2107,-423L1947,-371Z" fill="#878eb3" stroke="#878eb3" stroke-width="1.51"/><path d="M1947,-371L2107,-423L1539,-489Z" fill="#878eb3" stroke="#878eb3" stroke-width="1.51"/><path d="M-427,621L-507,-191L-484,1423Z" fill="#9fbcdf" stroke="#9fbcdf" stroke-width="1.51"/><path d="M-462,-570L-507,-191L-41,-188Z" fill="#f7fbff" stroke="#f7fbff" stroke-width="1.51"/><path d="M1539,-489L-462,-570L22,-462Z" fill="#deeaf7" stroke="#deeaf7" stroke-width="1.51"/><path d="M22,-462L-462,-570L-41,-188Z" fill="#f7fbff" stroke="#f7fbff" stroke-width="1.51"/></svg>