<?xml version="1.0" encoding="UTF-8"?>
<svg width="120px" height="110px" viewBox="0 0 120 110" version="1.1" xmlns="http://www.w3.org/2000/svg" xmlns:xlink="http://www.w3.org/1999/xlink">
    <!-- Generator: Sketch 48.1 (47250) - http://www.bohemiancoding.com/sketch -->
    <title>Group 3</title>
    <desc>Created with Sketch.</desc>
    <defs></defs>
    <g id="Detalhe-curso" stroke="none" stroke-width="1" fill="none" fill-rule="evenodd" transform="translate(-185.000000, -170.000000)">
        <g id="Group-15" transform="translate(185.000000, 170.000000)">
            <g id="Group-14">
                <g id="Group-3">
                    <rect id="Rectangle-5-Copy" fill="#F7DF1E" x="0" y="0" width="120" height="110"></rect>
                    <path d="M25.0004148,70.8174426 L33.1263963,65.868204 C34.6943498,68.665509 36.1204409,71.0324272 39.5413173,71.0324272 C42.8203312,71.0324272 44.8881218,69.7416845 44.8881218,64.7206452 L44.8881218,30.5744056 L54.8670262,30.5744056 L54.8670262,64.8625768 C54.8670262,75.2640763 48.8084205,79.9987477 39.9689787,79.9987477 C31.9861041,79.9987477 27.3523451,75.8380644 25,70.8166077 M60.2872507,69.741267 L68.4124026,65.0070131 C70.5515392,68.522325 73.3315457,71.1046453 78.2494445,71.1046453 C82.3846108,71.1046453 85.0210957,69.024095 85.0210957,66.1545719 C85.0210957,62.7114781 82.3124352,61.4917012 77.750437,59.4837864 L75.2562294,58.406776 C68.056502,55.3231031 63.2808806,51.4492052 63.2808806,43.27144 C63.2808806,35.7390462 68.9831709,30 77.8935439,30 C84.2375337,30 88.7995319,32.2241517 92.078131,38.0345812 L84.3080501,43.0564554 C82.5969897,39.9719476 80.7444816,38.7525882 77.8931291,38.7525882 C74.9704305,38.7525882 73.1170928,40.6177364 73.1170928,43.0564554 C73.1170928,46.0691624 74.9704305,47.2893568 79.2470445,49.1545051 L81.7416669,50.2302632 C90.2243785,53.8891765 95,57.6190556 95,66.0113879 C95,75.0507614 87.9433795,80 78.4630678,80 C69.1967942,80 63.2091197,75.5525314 60.2868359,69.7416845" id="Shape" fill="#000000" fill-rule="nonzero"></path>
                </g>
            </g>
        </g>
    </g>
</svg>